<?xml version="1.0" standalone="no"?>
<!DOCTYPE svg PUBLIC "-//W3C//DTD SVG 20010904//EN"
 "http://www.w3.org/TR/2001/REC-SVG-20010904/DTD/svg10.dtd">
<svg version="1.0" xmlns="http://www.w3.org/2000/svg"
 width="500.000000pt" height="500.000000pt" viewBox="0 0 500.000000 500.000000"
 preserveAspectRatio="xMidYMid meet">

<g transform="translate(0.000000,500.000000) scale(0.100000,-0.100000)"
fill="#000000" stroke="none">
<path d="M2307 3871 c-4 -17 -3 -21 5 -13 5 5 8 16 6 23 -3 8 -7 3 -11 -10z"/>
<path d="M2302 3790 c0 -14 2 -19 5 -12 2 6 2 18 0 25 -3 6 -5 1 -5 -13z"/>
<path d="M2333 3745 c0 -8 4 -12 9 -9 5 3 6 10 3 15 -9 13 -12 11 -12 -6z"/>
<path d="M2292 3708 c-6 -25 -14 -52 -17 -60 -4 -9 1 -18 11 -22 14 -5 15 -4
5 8 -9 11 -8 15 4 20 9 3 14 2 11 -2 -2 -4 -1 -14 5 -22 6 -10 9 -11 9 -2 0
14 38 16 59 3 10 -7 19 -4 28 7 10 13 14 14 21 4 7 -10 14 -9 33 7 13 11 19
20 12 21 -6 0 -25 12 -42 26 -30 25 -31 25 -31 5 0 -11 -9 -25 -19 -31 -44
-23 -91 -2 -55 25 15 10 22 11 34 2 13 -10 13 -10 3 4 -7 9 -11 19 -8 23 3 3
-1 2 -7 -4 -18 -15 -28 -12 -37 12 -7 19 -9 15 -19 -24z"/>
<path d="M2600 3595 c7 -9 16 -12 19 -7 3 5 13 12 21 15 8 3 0 6 -19 6 -29 1
-32 -1 -21 -14z"/>
<path d="M2526 3577 c3 -10 9 -15 12 -12 3 3 0 11 -7 18 -10 9 -11 8 -5 -6z"/>
<path d="M1740 3386 c0 -2 8 -10 18 -17 15 -13 16 -12 3 4 -13 16 -21 21 -21
13z"/>
<path d="M2748 3105 c6 -103 -11 -168 -79 -310 -49 -104 -94 -233 -84 -243 9
-10 136 108 129 120 -3 5 -1 7 5 6 17 -5 64 79 50 88 -8 5 -9 3 -4 -6 6 -9 4
-11 -5 -5 -8 5 -11 4 -7 -2 4 -6 0 -18 -7 -28 -12 -17 -13 -17 -11 3 2 27 23
52 39 46 18 -7 29 25 15 42 -10 12 -8 13 6 7 14 -5 17 -3 12 10 -3 9 -2 19 3
22 14 9 24 115 12 127 -8 8 -10 0 -7 -28 2 -21 2 -31 -1 -21 -3 9 -10 17 -15
17 -6 0 -7 9 -4 20 4 11 2 20 -4 20 -6 0 -13 -11 -17 -24 -3 -14 -12 -27 -20
-30 -18 -7 -18 4 1 31 8 12 12 30 9 40 -5 15 -4 15 5 3 6 -9 11 -10 11 -3 0 6
3 19 7 29 4 12 3 15 -5 10 -7 -4 -12 -3 -12 2 0 6 7 13 15 16 16 6 31 -16 22
-31 -3 -5 -1 -15 4 -23 8 -11 9 -5 6 20 -10 79 -36 143 -54 136 -6 -3 -14 0
-16 7 -2 7 -2 -24 1 -68z m56 -191 c9 -24 2 -26 -12 -4 -7 11 -8 20 -3 20 5 0
12 -7 15 -16z m-24 -109 c7 -9 8 -15 2 -15 -5 0 -12 7 -16 15 -3 8 -4 15 -2
15 2 0 9 -7 16 -15z"/>
<path d="M2850 3100 c0 -5 5 -10 11 -10 5 0 7 5 4 10 -3 6 -8 10 -11 10 -2 0
-4 -4 -4 -10z"/>
<path d="M2283 3018 c-27 -30 -62 -85 -64 -105 -1 -5 -4 -14 -6 -21 -3 -7 0
-32 7 -56 10 -37 15 -43 33 -38 20 5 20 4 8 -11 -7 -9 -18 -14 -24 -10 -6 4
-8 -2 -5 -15 4 -13 2 -20 -4 -16 -5 3 -8 15 -5 25 3 10 -1 23 -9 29 -11 10
-12 5 -7 -27 3 -21 10 -46 14 -55 5 -9 9 -24 9 -32 0 -17 85 -252 99 -275 8
-12 17 -10 53 11 23 14 71 40 106 58 61 32 62 32 62 75 0 24 15 86 33 138 31
89 32 95 15 106 -14 9 -18 8 -18 -5 0 -13 -2 -14 -15 -1 -7 8 -17 26 -21 41
-4 19 -13 26 -30 26 -13 0 -24 -4 -24 -9 0 -16 -42 -24 -50 -10 -7 10 -12 10
-23 1 -7 -7 -17 -9 -20 -5 -4 3 -13 0 -22 -7 -8 -7 -22 -9 -32 -6 -9 4 -19 2
-22 -3 -10 -15 -63 -1 -57 15 5 12 -5 18 -26 15 -6 -1 -5 21 4 86 1 7 5 10 10
7 5 -3 6 -10 3 -15 -4 -5 -2 -9 4 -9 5 0 8 12 7 28 -4 33 3 54 15 46 5 -3 9 2
9 11 0 10 5 13 13 9 6 -4 9 -4 5 1 -4 4 -3 14 3 22 22 26 2 13 -28 -19z m242
-188 c-3 -5 -10 -10 -16 -10 -5 0 -9 5 -9 10 0 6 7 10 16 10 8 0 12 -4 9 -10z"/>
<path d="M2971 2995 c0 -22 3 -57 8 -77 5 -20 5 -40 1 -45 -5 -4 -10 -33 -12
-63 -1 -30 -5 -57 -8 -60 -3 -3 -20 -36 -39 -75 -37 -79 -71 -125 -145 -203
-64 -67 -128 -110 -443 -297 -93 -55 -260 -222 -306 -305 -67 -121 -92 -309
-63 -460 33 -166 91 -266 73 -126 -13 108 -3 279 21 361 24 79 83 184 145 260
49 60 173 163 277 230 208 134 279 186 344 251 68 68 139 170 139 199 0 8 4
12 8 10 10 -7 20 25 12 37 -3 6 -2 8 4 5 6 -4 15 12 22 34 14 47 7 66 -9 24
-9 -23 -13 -26 -23 -15 -9 10 -9 13 1 17 14 5 17 33 3 33 -5 0 -12 -7 -15 -16
-4 -9 -9 -14 -12 -11 -3 3 2 17 11 31 9 14 16 28 15 33 -1 4 3 9 9 11 6 2 11
0 11 -5 0 -6 7 -10 15 -10 10 0 15 10 15 29 0 17 -4 27 -10 23 -5 -3 -10 1
-10 10 0 10 5 14 13 10 6 -4 4 0 -5 7 -12 10 -19 35 -22 79 -2 35 -9 75 -15
89 -9 23 -10 22 -10 -15z m-19 -314 c-8 -4 -13 -11 -12 -15 1 -4 -1 -12 -4
-19 -3 -9 -1 26 3 41 1 1 7 2 14 2 9 0 9 -2 -1 -9z m33 -29 c-3 -3 -11 0 -18
7 -9 10 -8 11 6 5 10 -3 15 -9 12 -12z"/>
<path d="M2915 2982 c-3 -20 -10 -44 -16 -52 -7 -11 -8 -6 -3 15 4 21 3 26 -4
16 -8 -11 -11 -10 -15 5 -2 10 -5 -4 -6 -32 -3 -124 -63 -245 -174 -350 -43
-40 -82 -74 -87 -74 -16 0 -20 -33 -9 -71 7 -21 17 -39 24 -39 11 0 102 73
135 109 36 37 100 130 125 179 37 76 73 274 46 258 -5 -4 -7 11 -4 34 7 51 -3
53 -12 2z"/>
<path d="M3405 2980 c-7 -12 2 -30 16 -30 5 0 9 9 9 20 0 21 -15 27 -25 10z"/>
<path d="M3471 2974 c0 -11 3 -14 6 -6 3 7 2 16 -1 19 -3 4 -6 -2 -5 -13z"/>
<path d="M2565 2840 c4 -6 11 -8 16 -5 14 9 11 15 -7 15 -8 0 -12 -5 -9 -10z"/>
<path d="M1800 2781 c0 -28 3 -31 30 -31 23 0 30 -4 30 -20 0 -11 5 -20 10
-20 6 0 10 -5 10 -11 0 -8 -4 -8 -12 -1 -7 6 -25 10 -40 9 -23 -2 -28 -7 -28
-29 0 -18 -5 -28 -15 -28 -9 0 -15 9 -15 25 0 19 -5 25 -22 25 -17 0 -19 -3
-10 -12 7 -7 12 -22 12 -34 0 -13 5 -26 10 -29 6 -3 10 0 10 7 0 10 3 9 9 -2
14 -21 3 -32 -20 -20 -11 6 -24 8 -30 4 -6 -3 -41 -7 -77 -8 -60 -1 -69 2 -89
24 -21 24 -22 24 -16 3 6 -24 -30 -72 -54 -73 -7 0 -10 -7 -7 -15 7 -17 -10
-41 -39 -57 -17 -8 -19 -8 -14 6 3 8 2 18 -3 21 -5 3 -7 12 -3 21 4 12 0 14
-21 8 -28 -7 -34 4 -14 24 9 9 9 12 0 12 -13 0 -43 27 -62 56 -11 18 -11 18
-5 -1 4 -11 9 -31 12 -45 30 -161 186 -417 346 -567 30 -29 57 -61 59 -70 2
-13 14 -19 42 -21 65 -6 79 3 109 64 38 76 108 173 149 205 134 104 168 128
205 150 24 13 43 30 43 36 0 7 -23 70 -50 140 -28 71 -56 158 -62 195 -10 59
-13 64 -23 45 -7 -14 -19 -21 -34 -20 -12 2 -20 -1 -17 -6 3 -5 -1 -11 -9 -15
-8 -3 -17 -1 -20 4 -8 13 -42 13 -50 0 -4 -6 -1 -18 7 -27 11 -14 10 -15 -10
-9 -15 5 -22 3 -22 -5 0 -9 -4 -7 -12 3 -15 19 -85 37 -74 19 5 -8 1 -8 -17 0
-13 6 -24 17 -24 25 0 20 15 17 19 -3 3 -15 5 -14 10 3 5 19 2 22 -18 19 -16
-1 -24 3 -24 13 0 12 -3 12 -15 2 -11 -9 -15 -10 -15 -1 0 7 -7 19 -15 27 -13
14 -15 12 -15 -15z m108 -124 c3 -12 -4 -17 -22 -17 -29 0 -32 5 -13 25 15 18
31 14 35 -8z m19 1 c-3 -8 -6 -5 -6 6 -1 11 2 17 5 13 3 -3 4 -12 1 -19z"/>
<path d="M3068 2753 c-10 -80 -51 -185 -102 -261 -54 -81 -212 -236 -282 -277
-211 -121 -382 -249 -459 -342 -114 -138 -169 -286 -169 -453 0 -139 24 -224
104 -363 34 -59 63 -107 64 -107 4 0 -11 79 -29 150 -13 51 -16 92 -12 190 6
142 21 200 79 315 77 151 167 247 354 378 60 41 120 85 134 96 l25 20 -27 49
c-50 90 -34 110 24 31 43 -59 92 -201 109 -315 13 -82 24 -94 91 -94 55 0 317
153 423 247 28 25 156 171 188 215 43 59 139 256 131 269 -5 9 -11 7 -22 -7
-14 -19 -15 -19 -8 0 9 25 -19 55 -45 49 -15 -4 -19 0 -19 20 0 24 -2 24 -37
16 -39 -9 -73 -4 -73 11 0 4 -9 10 -20 13 -11 3 -20 2 -20 -2 0 -11 -84 0 -92
13 -6 8 -11 7 -18 -4 -8 -12 -10 -10 -10 9 0 20 -3 22 -27 17 -18 -4 -23 -3
-15 2 10 6 1 11 -28 16 -31 5 -40 10 -36 21 3 8 1 15 -4 15 -5 0 -7 7 -4 15 5
11 0 15 -17 14 -35 -1 -62 -13 -65 -30 -11 -63 -46 -172 -66 -204 -21 -37 -23
-38 -26 -16 -2 13 2 43 8 66 7 24 9 54 5 66 -5 19 -4 21 5 9 8 -11 9 -5 5 28
-5 36 -3 42 12 42 13 0 14 3 5 12 -7 7 -12 19 -12 27 0 11 4 10 15 -5 13 -18
14 -18 8 6 -4 14 -12 30 -19 35 -7 6 -14 19 -16 30 -2 11 -7 -3 -10 -32z m77
-533 c0 -16 -6 -26 -18 -28 -19 -4 -32 20 -23 44 9 25 41 13 41 -16z"/>
<path d="M3000 2739 c0 -5 5 -7 10 -4 6 3 10 8 10 11 0 2 -4 4 -10 4 -5 0 -10
-5 -10 -11z"/>
<path d="M1310 2682 c0 -15 4 -20 16 -15 9 3 12 9 7 12 -4 3 -11 10 -15 15 -5
5 -8 0 -8 -12z"/>
<path d="M3101 2654 c0 -11 3 -14 6 -6 3 7 2 16 -1 19 -3 4 -6 -2 -5 -13z"/>
<path d="M3756 2645 c4 -8 8 -15 10 -15 2 0 4 7 4 15 0 8 -4 15 -10 15 -5 0
-7 -7 -4 -15z"/>
<path d="M3746 2605 c-3 -9 -6 -22 -5 -28 0 -7 5 -1 10 12 5 13 8 26 5 28 -2
2 -6 -3 -10 -12z"/>
<path d="M3532 2596 c7 -8 17 -12 22 -9 4 3 2 9 -5 14 -22 13 -31 11 -17 -5z"/>
<path d="M3706 2587 c3 -10 9 -15 12 -12 3 3 0 11 -7 18 -10 9 -11 8 -5 -6z"/>
<path d="M3707 2537 c3 -15 9 -27 14 -27 13 0 11 13 -5 35 -13 18 -14 18 -9
-8z"/>
<path d="M3686 2537 c3 -10 9 -15 12 -12 3 3 0 11 -7 18 -10 9 -11 8 -5 -6z"/>
<path d="M2429 2402 c-145 -74 -205 -111 -304 -188 -99 -77 -112 -91 -170
-184 -71 -116 -87 -180 -87 -337 0 -73 -4 -133 -8 -133 -16 0 3 -41 29 -61
l26 -21 7 104 c9 131 53 281 104 354 38 56 237 254 254 254 6 0 47 24 93 53
45 30 108 68 139 86 32 18 60 35 62 39 6 10 -16 92 -25 92 -4 0 -58 -26 -120
-58z"/>
<path d="M2723 2022 c-34 -26 -92 -69 -130 -97 -254 -186 -383 -411 -383 -665
0 -79 22 -199 50 -272 16 -42 148 -234 156 -226 1 2 -11 48 -27 103 -23 82
-29 119 -29 204 0 211 61 362 202 499 68 66 203 172 220 172 21 0 -13 -37 -93
-101 -159 -126 -265 -284 -289 -432 -20 -114 -8 -264 29 -371 31 -89 92 -199
99 -178 2 7 -1 35 -7 62 -17 80 -13 208 9 295 22 86 79 199 166 332 72 110
109 192 135 301 24 99 21 189 -10 308 -33 125 -27 120 -98 66z"/>
</g>
</svg>
